<svg width="19" height="23" viewBox="0 0 19 23" fill="none" xmlns="http://www.w3.org/2000/svg">
<path d="M1.152 22.848V18.88L9.536 11.04C10.1333 10.4854 10.5707 9.99467 10.848 9.568C11.1467 9.14133 11.3387 8.75733 11.424 8.416C11.5307 8.05333 11.584 7.72267 11.584 7.424C11.584 6.69867 11.3387 6.13333 10.848 5.728C10.3787 5.32267 9.664 5.12 8.704 5.12C7.89334 5.12 7.136 5.30134 6.432 5.664C5.728 6.02667 5.152 6.57067 4.704 7.296L0 4.672C0.832 3.264 2.03733 2.13334 3.616 1.28C5.19467 0.426667 7.08267 0 9.28 0C11.008 0 12.5227 0.277334 13.824 0.832001C15.1253 1.38667 16.1387 2.176 16.864 3.2C17.6107 4.224 17.984 5.42933 17.984 6.816C17.984 7.54134 17.888 8.26667 17.696 8.992C17.504 9.696 17.1307 10.4534 16.576 11.264C16.0427 12.0534 15.2427 12.9387 14.176 13.92L7.52 20.064L6.464 17.824H18.592V22.848H1.152Z" fill="#799A27"/>
</svg>
