<svg width="19" height="23" viewBox="0 0 19 23" fill="none" xmlns="http://www.w3.org/2000/svg">
<path d="M8.704 22.848C7.14667 22.848 5.58933 22.656 4.032 22.272C2.496 21.888 1.152 21.344 0 20.64L2.304 15.872C3.2 16.4694 4.192 16.928 5.28 17.248C6.38933 17.568 7.46667 17.728 8.512 17.728C9.6 17.728 10.464 17.5254 11.104 17.12C11.744 16.7147 12.064 16.1387 12.064 15.392C12.064 14.7307 11.7973 14.208 11.264 13.824C10.7307 13.4187 9.856 13.216 8.64 13.216H5.984V9.216L12 2.72L12.608 4.896H1.152V0H17.344V3.968L11.328 10.464L8.224 8.704H9.952C12.7467 8.704 14.8587 9.33334 16.288 10.592C17.7387 11.8294 18.464 13.4294 18.464 15.392C18.464 16.672 18.112 17.8774 17.408 19.008C16.7253 20.1387 15.6693 21.0667 14.24 21.792C12.8107 22.496 10.9653 22.848 8.704 22.848Z" fill="#799A27"/>
</svg>
