<svg width="19" height="23" viewBox="0 0 19 23" fill="none" xmlns="http://www.w3.org/2000/svg">
<path d="M8.672 22.848C7.136 22.848 5.58934 22.656 4.032 22.272C2.47467 21.888 1.13067 21.344 0 20.64L2.272 15.872C3.18934 16.4694 4.18134 16.928 5.248 17.248C6.336 17.568 7.41334 17.728 8.48 17.728C9.54667 17.728 10.4107 17.5254 11.072 17.12C11.7333 16.6934 12.064 16.1067 12.064 15.36C12.064 14.912 11.936 14.5174 11.68 14.176C11.424 13.8134 10.9867 13.5467 10.368 13.376C9.74934 13.184 8.864 13.088 7.712 13.088H1.632L2.752 0H17.024V4.896H4.992L8.224 2.112L7.488 10.944L4.256 8.16H9.216C11.4347 8.16 13.216 8.48 14.56 9.12C15.904 9.73867 16.8853 10.5814 17.504 11.648C18.1227 12.6934 18.432 13.8774 18.432 15.2C18.432 16.5227 18.08 17.7707 17.376 18.944C16.6933 20.096 15.6373 21.0347 14.208 21.76C12.7787 22.4854 10.9333 22.848 8.672 22.848Z" fill="#799A27"/>
</svg>
