<svg width="20" height="24" viewBox="0 0 20 24" fill="none" xmlns="http://www.w3.org/2000/svg">
<g clip-path="url(#clip0_2291_25)">
<path d="M10.368 23.296C8.27734 23.296 6.45334 22.88 4.896 22.048C3.36 21.216 2.15467 19.9787 1.28 18.336C0.426666 16.6934 0 14.6667 0 12.256C0 9.65334 0.501333 7.44534 1.504 5.632C2.528 3.79734 3.92534 2.4 5.696 1.44C7.488 0.48 9.55734 0 11.904 0C13.1627 0 14.368 0.149333 15.52 0.448C16.6933 0.725334 17.6853 1.12 18.496 1.632L16.192 6.176C15.552 5.728 14.88 5.42933 14.176 5.28C13.4933 5.10933 12.7893 5.024 12.064 5.024C10.336 5.024 8.94934 5.54667 7.904 6.592C6.88 7.63734 6.368 9.16267 6.368 11.168C6.368 11.5307 6.368 11.9147 6.368 12.32C6.38934 12.704 6.432 13.0987 6.496 13.504L4.896 12.192C5.32267 11.4027 5.83467 10.7414 6.432 10.208C7.05067 9.67467 7.776 9.26934 8.608 8.992C9.46134 8.71467 10.4107 8.576 11.456 8.576C12.864 8.576 14.144 8.87467 15.296 9.472C16.4693 10.048 17.408 10.8694 18.112 11.936C18.816 12.9814 19.168 14.2187 19.168 15.648C19.168 17.2054 18.7733 18.56 17.984 19.712C17.1947 20.8427 16.1387 21.728 14.816 22.368C13.4933 22.9867 12.0107 23.296 10.368 23.296ZM9.984 18.784C10.5813 18.784 11.104 18.6667 11.552 18.432C12.0213 18.1974 12.384 17.8667 12.64 17.44C12.896 17.0134 13.024 16.512 13.024 15.936C13.024 15.0827 12.736 14.4 12.16 13.888C11.6053 13.376 10.8693 13.12 9.952 13.12C9.33334 13.12 8.78934 13.2374 8.32 13.472C7.872 13.7067 7.50934 14.0374 7.232 14.464C6.976 14.8907 6.848 15.392 6.848 15.968C6.848 16.5227 6.976 17.0134 7.232 17.44C7.488 17.8454 7.85067 18.176 8.32 18.432C8.78934 18.6667 9.344 18.784 9.984 18.784Z" fill="#799A27"/>
</g>
<defs>
<clipPath id="clip0_2291_25">
<rect width="20" height="24" fill="white"/>
</clipPath>
</defs>
</svg>
