<svg width="96" height="50" viewBox="0 0 96 50" fill="none" xmlns="http://www.w3.org/2000/svg">
<path d="M0 47.4353V0.75294H11.7209V6.87059H13.4223C14.1785 5.23922 15.5963 3.70195 17.6758 2.25882C19.7553 0.752941 22.906 0 27.1281 0C30.7831 0 33.9652 0.847059 36.675 2.54118C39.4476 4.17254 41.5902 6.46275 43.1025 9.41176C44.6149 12.298 45.3711 15.6862 45.3711 19.5765V47.4353H33.4612V20.5177C33.4612 17.0039 32.579 14.3686 30.8145 12.6118C29.1131 10.8549 26.6555 9.97647 23.4417 9.97647C19.7868 9.97647 16.9511 11.2 14.9346 13.6471C12.9182 16.0314 11.9099 19.3883 11.9099 23.7177V47.4353H0Z" fill="white"/>
<path d="M86.8519 48.753C84.3313 48.753 82.1889 47.9372 80.4244 46.3059C78.723 44.6118 77.8723 42.4471 77.8723 39.8118C77.8723 37.1765 78.723 35.0431 80.4244 33.4118C82.1889 31.7177 84.3313 30.8706 86.8519 30.8706C89.4355 30.8706 91.5781 31.7177 93.2795 33.4118C94.9809 35.0431 95.8316 37.1765 95.8316 39.8118C95.8316 42.4471 94.9809 44.6118 93.2795 46.3059C91.5781 47.9372 89.4355 48.753 86.8519 48.753Z" fill="#C0F928"/>
</svg>
