<svg width="425" height="68" viewBox="0 0 425 68" fill="none" xmlns="http://www.w3.org/2000/svg">
<g clip-path="url(#clip0_20_2)">
<path d="M0 65.28V1.79201H15.872V10.112H18.176C19.2 7.89334 21.12 5.80267 23.936 3.84001C26.752 1.79201 31.0187 0.768006 36.736 0.768006C41.6853 0.768006 45.9947 1.92001 49.664 4.22401C53.4187 6.44267 56.32 9.55734 58.368 13.568C60.416 17.4933 61.44 22.1013 61.44 27.392V65.28H45.312V28.672C45.312 23.8933 44.1173 20.3093 41.728 17.92C39.424 15.5307 36.096 14.336 31.744 14.336C26.7947 14.336 22.9547 16 20.224 19.328C17.4933 22.5707 16.128 27.136 16.128 33.024V65.28H0ZM102.067 66.304C97.1177 66.304 92.7657 65.1947 89.011 62.976C85.3417 60.672 82.483 57.5147 80.435 53.504C78.387 49.4933 77.363 44.8853 77.363 39.68V1.79201H93.491V38.4C93.491 43.1787 94.643 46.7627 96.947 49.152C99.3363 51.5413 102.707 52.736 107.059 52.736C112.008 52.736 115.848 51.1147 118.579 47.872C121.31 44.544 122.675 39.936 122.675 34.048V1.79201H138.803V65.28H122.931V56.96H120.627C119.603 59.0933 117.683 61.184 114.867 63.232C112.051 65.28 107.784 66.304 102.067 66.304ZM170.062 65.28L149.838 1.79201H166.99L181.71 53.504H184.014L198.734 1.79201H215.886L195.662 65.28H170.062ZM240.187 65.28L219.963 1.79201H237.115L251.835 53.504H254.139L268.859 1.79201H286.011L265.787 65.28H240.187ZM325.333 67.072C319.018 67.072 313.344 65.792 308.309 63.232C303.274 60.672 299.306 56.96 296.405 52.096C293.504 47.232 292.053 41.3867 292.053 34.56V32.512C292.053 25.6853 293.504 19.84 296.405 14.976C299.306 10.112 303.274 6.40001 308.309 3.84001C313.344 1.28 319.018 0 325.333 0C331.648 0 337.322 1.28 342.357 3.84001C347.392 6.40001 351.36 10.112 354.261 14.976C357.162 19.84 358.613 25.6853 358.613 32.512V34.56C358.613 41.3867 357.162 47.232 354.261 52.096C351.36 56.96 347.392 60.672 342.357 63.232C337.322 65.792 331.648 67.072 325.333 67.072ZM325.333 52.736C330.282 52.736 334.378 51.1573 337.621 48C340.864 44.7573 342.485 40.1493 342.485 34.176V32.896C342.485 26.9227 340.864 22.3573 337.621 19.2C334.464 15.9573 330.368 14.336 325.333 14.336C320.384 14.336 316.288 15.9573 313.045 19.2C309.802 22.3573 308.181 26.9227 308.181 32.896V34.176C308.181 40.1493 309.802 44.7573 313.045 48C316.288 51.1573 320.384 52.736 325.333 52.736Z" fill="white"/>
<path d="M412.237 67.072C408.824 67.072 405.922 65.9627 403.533 63.744C401.229 61.44 400.077 58.496 400.077 54.912C400.077 51.328 401.229 48.4267 403.533 46.208C405.922 43.904 408.824 42.752 412.237 42.752C415.736 42.752 418.637 43.904 420.941 46.208C423.245 48.4267 424.397 51.328 424.397 54.912C424.397 58.496 423.245 61.44 420.941 63.744C418.637 65.9627 415.736 67.072 412.237 67.072Z" fill="#C0F928"/>
</g>
<defs>
<clipPath id="clip0_20_2">
<rect width="425" height="68" fill="white"/>
</clipPath>
</defs>
</svg>
