<svg width="25" height="23" viewBox="0 0 25 23" fill="none" xmlns="http://www.w3.org/2000/svg">
<path d="M12.2662 22.9557C10.5004 22.9557 8.87118 22.6719 7.37863 22.1044C5.88609 21.5368 4.58274 20.7379 3.46859 19.7079C2.37545 18.6568 1.52407 17.4375 0.914446 16.0501C0.304816 14.6627 0 13.1386 0 11.4779C0 9.81715 0.304816 8.29308 0.914446 6.90564C1.52407 5.51821 2.37545 4.30946 3.46859 3.27939C4.58274 2.2283 5.88609 1.41897 7.37863 0.851382C8.87118 0.283794 10.5004 0 12.2662 0C14.053 0 15.6822 0.283794 17.1537 0.851382C18.6463 1.41897 19.9391 2.2283 21.0323 3.27939C22.1254 4.30946 22.9768 5.51821 23.5864 6.90564C24.2171 8.29308 24.5324 9.81715 24.5324 11.4779C24.5324 13.1386 24.2171 14.6732 23.5864 16.0816C22.9768 17.4691 22.1254 18.6778 21.0323 19.7079C19.9391 20.7379 18.6463 21.5368 17.1537 22.1044C15.6822 22.6719 14.053 22.9557 12.2662 22.9557ZM12.2662 17.7844C13.1071 17.7844 13.8849 17.6372 14.5996 17.3429C15.3354 17.0486 15.966 16.6282 16.4916 16.0816C17.0381 15.514 17.4586 14.8413 17.7529 14.0635C18.0682 13.2857 18.2259 12.4238 18.2259 11.4779C18.2259 10.5109 18.0682 9.64898 17.7529 8.8922C17.4586 8.11439 17.0381 7.45221 16.4916 6.90564C15.966 6.33805 15.3354 5.90711 14.5996 5.6128C13.8849 5.3185 13.1071 5.17135 12.2662 5.17135C11.4253 5.17135 10.637 5.3185 9.90124 5.6128C9.1865 5.90711 8.55585 6.33805 8.00928 6.90564C7.48374 7.45221 7.0633 8.11439 6.74798 8.8922C6.45367 9.64898 6.30652 10.5109 6.30652 11.4779C6.30652 12.4238 6.45367 13.2857 6.74798 14.0635C7.0633 14.8413 7.48374 15.514 8.00928 16.0816C8.55585 16.6282 9.1865 17.0486 9.90124 17.3429C10.637 17.6372 11.4253 17.7844 12.2662 17.7844Z" fill="white"/>
</svg>
